<?xml version="1.0" encoding="utf-8" standalone="no"?>
<!DOCTYPE svg PUBLIC "-//W3C//DTD SVG 1.1//EN"
  "http://www.w3.org/Graphics/SVG/1.1/DTD/svg11.dtd">
<svg xmlns:xlink="http://www.w3.org/1999/xlink" width="115.2pt" height="260.521875pt" viewBox="0 0 115.2 260.521875" xmlns="http://www.w3.org/2000/svg" version="1.1">
 <metadata>
  <rdf:RDF xmlns:dc="http://purl.org/dc/elements/1.1/" xmlns:cc="http://creativecommons.org/ns#" xmlns:rdf="http://www.w3.org/1999/02/22-rdf-syntax-ns#">
   <cc:Work>
    <dc:type rdf:resource="http://purl.org/dc/dcmitype/StillImage"/>
    <dc:date>2025-04-13T22:30:36.021879</dc:date>
    <dc:format>image/svg+xml</dc:format>
    <dc:creator>
     <cc:Agent>
      <dc:title>Matplotlib v3.9.2, https://matplotlib.org/</dc:title>
     </cc:Agent>
    </dc:creator>
   </cc:Work>
  </rdf:RDF>
 </metadata>
 <defs>
  <style type="text/css">*{stroke-linejoin: round; stroke-linecap: butt}</style>
 </defs>
 <g id="figure_1">
  <g id="axes_1">
   <g id="legend_1">
    <g id="patch_1">
     <path d="M 4.8 14.55 
L 28.8 14.55 
L 28.8 6.15 
L 4.8 6.15 
z
" style="fill: #ffa500; stroke: #000000; stroke-linejoin: miter"/>
    </g>
    <g id="text_1">
     <!-- 海洋垃圾 -->
     <g transform="translate(38.4 14.55) scale(0.12 -0.12)">
      <defs>
       <path id="SimHei-6d77" d="M 5325 600 
Q 5500 600 5800 625 
L 5800 175 
Q 5600 200 5300 200 
Q 5250 -375 5062 -500 
Q 4875 -625 4450 -675 
Q 4375 -450 4250 -175 
Q 4625 -200 4737 -137 
Q 4850 -75 4875 200 
L 2475 200 
Q 2550 975 2600 1725 
Q 2325 1725 2025 1700 
L 2025 2150 
Q 2275 2125 2625 2125 
Q 2675 3050 2700 3475 
Q 2575 3300 2250 2875 
Q 2075 3050 1875 3175 
Q 2300 3600 2587 4175 
Q 2875 4750 3000 5250 
Q 3300 5075 3525 5025 
Q 3425 4900 3250 4525 
L 5050 4525 
Q 5525 4525 5900 4550 
L 5900 4100 
Q 5525 4125 5025 4125 
L 3075 4125 
Q 2900 3825 2725 3550 
L 5450 3550 
Q 5425 2950 5400 2125 
Q 5675 2125 6000 2150 
L 6000 1700 
Q 5675 1725 5375 1725 
Q 5350 1400 5325 600 
z
M 4975 1725 
L 3000 1725 
Q 2950 1050 2925 600 
L 4925 600 
L 4975 1725 
z
M 3075 3150 
Q 3075 2825 3025 2125 
L 5000 2125 
Q 5000 2675 5025 3150 
L 3075 3150 
z
M 1750 1525 
Q 1600 1300 1375 750 
Q 1150 200 775 -475 
Q 675 -325 300 -200 
Q 600 225 875 787 
Q 1150 1350 1350 1850 
Q 1525 1650 1750 1525 
z
M 1400 2225 
Q 725 2775 250 3050 
Q 425 3225 525 3450 
Q 975 3175 1725 2650 
Q 1525 2425 1400 2225 
z
M 825 5050 
Q 1300 4775 2025 4300 
Q 1850 4075 1700 3875 
Q 1125 4350 550 4675 
Q 725 4875 825 5050 
z
M 3875 1625 
Q 4150 1225 4325 900 
Q 4125 800 3975 675 
Q 3775 1075 3550 1400 
Q 3725 1525 3875 1625 
z
M 3925 3100 
Q 4200 2700 4350 2400 
Q 4150 2300 4000 2175 
Q 3850 2500 3625 2875 
L 3925 3100 
z
" transform="scale(0.015625)"/>
       <path id="SimHei-6d0b" d="M 4375 4050 
Q 4650 4800 4725 5250 
Q 5050 5125 5375 5050 
Q 5175 4900 4825 4050 
Q 5475 4050 6000 4075 
L 6000 3575 
Q 5325 3600 4950 3600 
L 4275 3600 
L 4275 2625 
L 4975 2625 
Q 5375 2625 5800 2650 
L 5800 2175 
Q 5275 2200 4950 2200 
L 4275 2200 
L 4275 1225 
L 5125 1225 
Q 5500 1225 6100 1250 
L 6100 775 
Q 5475 800 5125 800 
L 4275 800 
L 4275 200 
Q 4275 -250 4300 -700 
L 3750 -700 
Q 3775 -250 3775 175 
L 3775 800 
L 3075 800 
Q 2575 800 2000 775 
L 2000 1250 
Q 2575 1225 3100 1225 
L 3775 1225 
L 3775 2200 
L 3250 2200 
Q 2825 2200 2325 2175 
L 2325 2650 
Q 2850 2625 3250 2625 
L 3775 2625 
L 3775 3600 
L 3075 3600 
Q 2575 3600 2175 3575 
L 2175 4100 
Q 2575 4050 3075 4050 
L 4375 4050 
z
M 1675 1400 
Q 1475 1200 1237 537 
Q 1000 -125 850 -575 
Q 575 -350 250 -225 
Q 475 25 750 612 
Q 1025 1200 1150 1725 
Q 1425 1525 1675 1400 
z
M 525 3350 
Q 1075 3050 1650 2725 
Q 1400 2575 1275 2300 
Q 800 2625 225 2925 
Q 400 3125 525 3350 
z
M 850 5125 
Q 1325 4775 1800 4375 
Q 1600 4225 1425 3975 
Q 1000 4425 500 4725 
Q 650 4875 850 5125 
z
M 3125 5275 
Q 3275 4950 3600 4400 
Q 3325 4275 3100 4150 
Q 2950 4600 2650 5050 
Q 2800 5150 3125 5275 
z
" transform="scale(0.015625)"/>
       <path id="SimHei-5783" d="M 2575 900 
Q 2175 775 1537 537 
Q 900 300 500 125 
Q 400 425 275 625 
Q 475 675 737 750 
Q 1000 825 1200 900 
L 1200 2875 
L 1075 2875 
Q 750 2875 350 2850 
L 350 3300 
Q 750 3275 1075 3275 
L 1200 3275 
L 1200 4250 
Q 1200 4675 1175 4850 
L 1700 4850 
Q 1675 4675 1675 4250 
L 1675 3275 
L 1875 3275 
Q 2000 3275 2425 3300 
L 2425 2850 
Q 2000 2875 1875 2875 
L 1675 2875 
L 1675 1025 
Q 2050 1150 2575 1350 
Q 2550 1125 2575 900 
z
M 6100 -275 
Q 5625 -250 5400 -250 
L 3300 -250 
Q 2950 -250 2225 -275 
L 2225 200 
Q 2775 175 3275 175 
L 4250 175 
Q 4625 1275 4762 1825 
Q 4900 2375 5050 3225 
Q 5450 3050 5650 3000 
Q 5550 2875 5475 2612 
Q 5400 2350 5162 1562 
Q 4925 775 4725 175 
L 5400 175 
Q 5800 175 6100 200 
L 6100 -275 
z
M 2525 3950 
Q 3025 3925 3275 3925 
L 5225 3925 
Q 5425 3925 5875 3950 
L 5875 3500 
Q 5475 3525 5175 3525 
L 3275 3525 
Q 3100 3525 2525 3500 
L 2525 3950 
z
M 3225 3000 
Q 3425 2575 3625 2000 
Q 3825 1425 4075 675 
Q 3900 650 3575 500 
Q 3350 1400 3175 1900 
Q 3000 2400 2800 2825 
Q 3000 2875 3225 3000 
z
M 4050 5200 
Q 4325 4650 4525 4175 
Q 4250 4075 4025 3975 
Q 3850 4525 3600 5000 
Q 3850 5075 4050 5200 
z
" transform="scale(0.015625)"/>
       <path id="SimHei-573e" d="M 5425 5000 
Q 5075 3975 4925 3425 
L 5825 3425 
Q 5650 2725 5450 2187 
Q 5250 1650 4825 850 
Q 5050 575 5400 337 
Q 5750 100 6200 -50 
Q 6000 -250 5850 -575 
Q 5350 -300 5037 -50 
Q 4725 200 4500 475 
Q 4300 250 3925 -50 
Q 3550 -350 2925 -725 
Q 2750 -350 2575 -250 
Q 3025 -75 3500 250 
Q 3975 575 4200 875 
Q 3900 1300 3675 1700 
Q 3475 2050 3325 2475 
Q 3275 2275 3250 2075 
Q 3125 1450 2825 800 
Q 2525 150 1875 -575 
Q 1650 -300 1400 -175 
Q 1925 250 2250 762 
Q 2575 1275 2725 1837 
Q 2875 2400 2925 3075 
Q 2975 3750 3000 4575 
Q 2675 4575 2325 4550 
L 2325 5025 
Q 2775 5000 3550 5000 
L 5425 5000 
z
M 1175 3575 
L 1175 4325 
Q 1175 4675 1150 5200 
L 1675 5200 
Q 1650 4700 1650 4325 
L 1650 3575 
L 1925 3575 
Q 2050 3575 2375 3600 
L 2375 3125 
Q 2100 3150 1750 3150 
L 1650 3150 
L 1650 1450 
Q 2075 1600 2475 1750 
Q 2425 1525 2450 1250 
Q 1950 1100 1375 887 
Q 800 675 450 500 
Q 325 825 200 1075 
Q 575 1150 775 1200 
Q 975 1250 1200 1325 
L 1200 3150 
L 1075 3150 
Q 750 3150 400 3125 
L 400 3600 
Q 750 3575 1050 3575 
L 1175 3575 
z
M 3400 3450 
Q 3600 2825 3875 2275 
Q 4250 1600 4500 1275 
Q 4725 1675 4912 2162 
Q 5100 2650 5200 3025 
L 4325 3025 
Q 4425 3350 4537 3762 
Q 4650 4175 4750 4575 
L 3450 4575 
L 3400 3450 
z
" transform="scale(0.015625)"/>
      </defs>
      <use xlink:href="#SimHei-6d77"/>
      <use xlink:href="#SimHei-6d0b" x="100"/>
      <use xlink:href="#SimHei-5783" x="200"/>
      <use xlink:href="#SimHei-573e" x="300"/>
     </g>
    </g>
    <g id="patch_2">
     <path d="M 4.8 31.471875 
L 28.8 31.471875 
L 28.8 23.071875 
L 4.8 23.071875 
z
" style="stroke: #000000; stroke-linejoin: miter"/>
    </g>
    <g id="text_2">
     <!-- 溢油 -->
     <g transform="translate(38.4 31.471875) scale(0.12 -0.12)">
      <defs>
       <path id="SimHei-6ea2" d="M 3625 3075 
Q 3450 2975 3087 2675 
Q 2725 2375 2450 2175 
L 5350 2175 
Q 5050 2425 4125 3050 
Q 4325 3250 4450 3400 
Q 5525 2725 6000 2350 
Q 5825 2175 5675 1950 
L 5550 2050 
Q 5525 1825 5525 1350 
L 5525 50 
Q 5825 50 6125 75 
L 6125 -375 
Q 5800 -350 5350 -350 
L 2800 -350 
Q 2300 -350 1900 -375 
L 1900 75 
Q 2200 50 2375 50 
L 2375 1375 
Q 2375 1725 2350 2100 
L 2175 1950 
Q 2000 2100 1775 2275 
Q 2050 2425 2487 2775 
Q 2925 3125 3150 3425 
Q 3300 3250 3625 3075 
z
M 5400 4975 
Q 5225 4800 5112 4612 
Q 5000 4425 4750 4025 
L 5225 4025 
Q 5700 4025 6050 4050 
L 6050 3600 
Q 5725 3625 5250 3625 
L 2975 3625 
Q 2450 3625 2000 3600 
L 2000 4050 
Q 2450 4025 2975 4025 
L 4250 4025 
Q 4650 4750 4825 5250 
Q 5100 5075 5400 4975 
z
M 1700 1600 
Q 1575 1275 1412 825 
Q 1250 375 1162 125 
Q 1075 -125 925 -550 
Q 600 -300 350 -225 
Q 575 100 825 725 
Q 1075 1350 1225 1925 
Q 1425 1700 1700 1600 
z
M 5050 50 
L 5050 1750 
L 4575 1750 
L 4575 50 
L 5050 50 
z
M 3300 50 
L 3300 1750 
L 2850 1750 
L 2850 50 
L 3300 50 
z
M 950 5050 
Q 1175 4875 1462 4650 
Q 1750 4425 1950 4225 
Q 1725 4000 1575 3825 
Q 1325 4050 1087 4287 
Q 850 4525 600 4700 
L 950 5050 
z
M 4125 50 
L 4125 1750 
L 3750 1750 
L 3750 50 
L 4125 50 
z
M 575 3475 
Q 1300 3050 1650 2850 
Q 1425 2575 1325 2375 
Q 800 2750 300 3100 
Q 425 3250 575 3475 
z
M 2975 5200 
Q 3200 4850 3550 4400 
Q 3275 4225 3075 4100 
Q 2900 4525 2550 4950 
Q 2725 5050 2975 5200 
z
" transform="scale(0.015625)"/>
       <path id="SimHei-6cb9" d="M 3775 4250 
Q 3775 4575 3750 5100 
L 4275 5100 
Q 4250 4575 4250 4250 
L 4250 3750 
L 5825 3750 
Q 5800 3150 5800 2825 
L 5800 425 
Q 5800 150 5825 -525 
L 5325 -525 
L 5325 0 
L 2700 0 
L 2700 -525 
L 2200 -525 
Q 2225 125 2225 450 
L 2225 2800 
Q 2225 3125 2200 3750 
L 3775 3750 
L 3775 4250 
z
M 3775 400 
L 3775 1700 
L 2700 1700 
L 2700 400 
L 3775 400 
z
M 5325 400 
L 5325 1700 
L 4250 1700 
L 4250 400 
L 5325 400 
z
M 5325 2100 
L 5325 3350 
L 4250 3350 
L 4250 2100 
L 5325 2100 
z
M 3775 2100 
L 3775 3350 
L 2700 3350 
L 2700 2100 
L 3775 2100 
z
M 1900 1550 
Q 1725 1250 1425 525 
Q 1125 -200 925 -575 
Q 750 -375 400 -250 
Q 725 125 1025 750 
Q 1325 1375 1450 1825 
Q 1700 1650 1900 1550 
z
M 1075 4875 
Q 1600 4550 2150 4175 
Q 1950 4000 1825 3750 
Q 1325 4150 775 4475 
L 1075 4875 
z
M 625 3325 
Q 1175 3075 1800 2725 
Q 1600 2475 1550 2275 
Q 975 2650 400 2900 
Q 500 3125 625 3325 
z
" transform="scale(0.015625)"/>
      </defs>
      <use xlink:href="#SimHei-6ea2"/>
      <use xlink:href="#SimHei-6cb9" x="100"/>
     </g>
    </g>
    <g id="patch_3">
     <path d="M 4.8 48.628125 
L 28.8 48.628125 
L 28.8 40.228125 
L 4.8 40.228125 
z
" style="fill: #006400; stroke: #000000; stroke-linejoin: miter"/>
    </g>
    <g id="text_3">
     <!-- 密集马尾藻 -->
     <g transform="translate(38.4 48.628125) scale(0.12 -0.12)">
      <defs>
       <path id="SimHei-5bc6" d="M 4825 3350 
Q 4475 3125 3962 2750 
Q 3450 2375 2775 2025 
L 4025 2025 
Q 4550 2025 4550 2600 
Q 4800 2450 5150 2325 
Q 4900 1775 4712 1687 
Q 4525 1600 4200 1600 
L 2875 1600 
Q 2225 1575 2175 1675 
Q 1125 1325 575 1175 
Q 475 1425 250 1675 
Q 850 1725 1262 1850 
Q 1675 1975 2000 2100 
L 2000 2750 
Q 2000 3000 1975 3400 
L 2550 3400 
Q 2525 3025 2525 2775 
L 2525 2350 
Q 2900 2525 3425 2887 
Q 3950 3250 4325 3775 
Q 4475 3625 4825 3350 
z
M 1225 550 
Q 1225 825 1200 1125 
L 1750 1125 
Q 1725 775 1725 525 
L 1725 0 
L 3075 0 
L 3075 700 
Q 3075 950 3025 1375 
L 3600 1375 
Q 3575 1100 3575 675 
L 3575 0 
L 4975 0 
L 4975 625 
Q 4975 875 4950 1200 
L 5500 1200 
Q 5475 900 5475 600 
L 5475 -225 
Q 5475 -425 5500 -700 
L 4975 -700 
L 4975 -400 
L 1200 -400 
Q 1225 -150 1225 75 
L 1225 550 
z
M 5375 3575 
L 5375 4150 
L 1150 4150 
L 1150 3550 
L 600 3550 
Q 625 3700 625 4000 
Q 625 4300 600 4575 
L 2975 4575 
Q 2900 4800 2775 5050 
Q 3000 5125 3325 5225 
Q 3425 5075 3575 4575 
L 5925 4575 
Q 5900 4250 5900 4025 
Q 5900 3825 5925 3575 
L 5375 3575 
z
M 1650 3275 
Q 1500 2850 1225 2250 
Q 900 2350 675 2400 
Q 950 2800 1100 3400 
Q 1350 3325 1650 3275 
z
M 5450 3325 
Q 5775 2925 6100 2450 
Q 5825 2350 5625 2200 
Q 5350 2675 5000 3050 
Q 5200 3175 5450 3325 
z
M 3225 3150 
Q 2875 3600 2575 3825 
Q 2775 3950 2975 4125 
Q 3175 3975 3650 3475 
Q 3450 3300 3225 3150 
z
" transform="scale(0.015625)"/>
       <path id="SimHei-96c6" d="M 2275 4925 
Q 2125 4800 2025 4662 
Q 1925 4525 1850 4350 
L 4925 4350 
Q 5300 4350 5750 4375 
L 5750 3975 
L 3650 3975 
L 3650 3575 
L 4625 3575 
Q 4925 3575 5325 3600 
L 5325 3175 
Q 4925 3200 4625 3200 
L 3650 3200 
L 3650 2800 
L 4675 2800 
Q 5000 2800 5425 2825 
L 5425 2400 
Q 5000 2425 4675 2425 
L 3650 2425 
L 3650 2075 
L 4875 2075 
Q 5275 2075 5675 2100 
L 5675 1675 
Q 5300 1700 4900 1700 
L 1650 1700 
L 1650 1500 
L 1150 1500 
Q 1200 1950 1200 2325 
L 1200 3475 
Q 1050 3250 937 3125 
Q 825 3000 675 2825 
Q 500 3000 300 3125 
Q 475 3325 875 3825 
Q 1275 4325 1462 4650 
Q 1650 4975 1725 5225 
Q 1950 5100 2275 4925 
z
M 2975 1200 
Q 2975 1300 2950 1625 
L 3475 1625 
Q 3450 1275 3450 1200 
L 5050 1200 
Q 5500 1200 5925 1225 
L 5925 825 
L 4150 825 
Q 4500 525 4925 362 
Q 5350 200 6100 25 
Q 5875 -225 5775 -475 
Q 5275 -300 4962 -162 
Q 4650 -25 4387 137 
Q 4125 300 3950 462 
Q 3775 625 3575 825 
L 3450 825 
L 3450 250 
Q 3450 -275 3500 -650 
L 2950 -650 
Q 2975 -300 2975 250 
L 2975 825 
L 2875 825 
Q 2700 575 2475 375 
Q 2250 175 1987 12 
Q 1725 -150 1425 -300 
Q 1125 -450 700 -575 
Q 600 -325 400 -75 
Q 925 50 1475 262 
Q 2025 475 2300 825 
L 500 825 
L 500 1225 
Q 800 1200 1400 1200 
L 2975 1200 
z
M 3150 2800 
L 3150 3200 
L 1650 3200 
L 1650 2800 
L 3150 2800 
z
M 3150 3575 
L 3150 3975 
L 1650 3975 
L 1650 3575 
L 3150 3575 
z
M 3150 2075 
L 3150 2425 
L 1650 2425 
L 1650 2075 
L 3150 2075 
z
M 3450 5250 
Q 3575 5150 3712 5000 
Q 3850 4850 4000 4650 
Q 3850 4525 3575 4375 
Q 3425 4575 3325 4700 
Q 3225 4825 3075 4950 
Q 3275 5075 3450 5250 
z
" transform="scale(0.015625)"/>
       <path id="SimHei-9a6c" d="M 2300 3975 
Q 2200 3750 2125 3287 
Q 2050 2825 2050 2425 
L 4100 2425 
Q 4150 2925 4200 3450 
Q 4250 3975 4300 4400 
L 1900 4400 
Q 1425 4400 875 4375 
L 875 4875 
Q 1425 4850 1900 4850 
L 4875 4850 
Q 4775 4175 4700 3487 
Q 4625 2800 4600 2425 
L 5750 2425 
Q 5700 1875 5662 1212 
Q 5625 550 5500 112 
Q 5375 -325 5075 -425 
Q 4775 -525 3925 -575 
Q 3900 -300 3700 25 
Q 4675 0 4800 62 
Q 4925 125 5012 287 
Q 5100 450 5150 1037 
Q 5200 1625 5200 2000 
L 1500 2000 
Q 1550 2500 1600 3037 
Q 1650 3575 1675 4075 
Q 2000 4025 2300 3975 
z
M 3625 1225 
Q 4025 1225 4675 1250 
L 4675 775 
Q 4000 800 3625 800 
L 1400 800 
Q 900 800 500 775 
L 500 1250 
Q 900 1225 1400 1225 
L 3625 1225 
z
" transform="scale(0.015625)"/>
       <path id="SimHei-5c3e" d="M 5475 5000 
Q 5450 4625 5450 4250 
Q 5450 3900 5475 3525 
L 1375 3525 
Q 1400 1575 1187 687 
Q 975 -200 775 -625 
Q 550 -375 250 -300 
Q 625 250 750 1162 
Q 875 2075 887 3175 
Q 900 4275 850 5000 
L 5475 5000 
z
M 5250 2800 
Q 4950 2800 4587 2750 
Q 4225 2700 3700 2625 
L 3700 2075 
Q 4975 2200 5375 2250 
L 5375 1800 
Q 4275 1725 3700 1650 
L 3700 1150 
Q 4975 1250 5675 1325 
L 5675 875 
Q 4450 800 3700 725 
L 3700 375 
Q 3700 -25 3975 -25 
L 5125 -25 
Q 5500 -25 5525 500 
Q 5725 400 6050 325 
Q 5925 -425 5300 -425 
L 3775 -425 
Q 3225 -425 3225 75 
L 3225 675 
Q 2050 575 1525 500 
L 1475 950 
Q 2125 1000 3225 1075 
L 3225 1625 
Q 2825 1600 1800 1500 
L 1725 1950 
Q 2050 1950 3225 2050 
L 3225 2575 
Q 2275 2500 1750 2425 
Q 1700 2650 1625 2875 
Q 2700 2925 3600 3050 
Q 4500 3175 4925 3300 
Q 5025 3075 5250 2800 
z
M 4975 3950 
L 4975 4600 
L 1375 4600 
L 1375 3950 
L 4975 3950 
z
" transform="scale(0.015625)"/>
       <path id="SimHei-85fb" d="M 5875 -475 
Q 5300 -250 4862 25 
Q 4425 300 4075 650 
L 4075 250 
Q 4075 -125 4100 -600 
L 3600 -600 
Q 3625 -125 3625 250 
L 3625 675 
Q 3225 275 2875 12 
Q 2525 -250 1900 -550 
L 1500 -150 
Q 1975 -50 2375 150 
Q 2775 350 3175 700 
L 2775 700 
Q 2300 700 1800 675 
L 1800 1075 
Q 2300 1050 2750 1050 
L 3625 1050 
Q 3625 1175 3600 1400 
L 4100 1400 
Q 4075 1175 4075 1050 
L 5250 1050 
Q 5675 1050 6075 1075 
L 6075 675 
Q 5700 700 5250 700 
L 4525 700 
Q 4875 425 5237 262 
Q 5600 100 6175 25 
Q 6000 -200 5875 -475 
z
M 1975 4700 
Q 1975 4875 1950 5200 
L 2475 5200 
Q 2450 4875 2450 4700 
L 3925 4700 
Q 3925 4875 3900 5200 
L 4425 5200 
Q 4400 4875 4400 4700 
L 5475 4700 
Q 5700 4700 6100 4725 
L 6100 4325 
Q 5700 4350 5475 4350 
L 4400 4350 
Q 4400 4225 4425 4050 
L 3925 4050 
L 3925 4350 
L 2450 4350 
L 2450 4000 
L 1950 4000 
Q 1975 4175 1975 4350 
L 1000 4350 
Q 650 4350 325 4325 
L 325 4725 
Q 650 4700 1000 4700 
L 1975 4700 
z
M 5275 3925 
Q 5250 3700 5250 3425 
Q 5250 3175 5275 2875 
L 2550 2875 
Q 2575 3200 2575 3450 
Q 2575 3700 2550 3925 
L 5275 3925 
z
M 5750 2575 
Q 5725 2325 5725 2100 
Q 5725 1875 5750 1575 
L 4025 1575 
Q 4050 1825 4050 2075 
Q 4050 2325 4025 2575 
L 5750 2575 
z
M 3700 2575 
Q 3675 2350 3675 2075 
Q 3675 1825 3700 1550 
L 2050 1550 
L 2050 2075 
Q 2050 2350 2025 2575 
L 3700 2575 
z
M 1600 1300 
Q 1475 1025 1262 550 
Q 1050 75 775 -500 
Q 575 -350 350 -225 
Q 625 125 850 600 
Q 1075 1075 1250 1550 
Q 1350 1450 1600 1300 
z
M 4775 3200 
L 4775 3625 
L 3025 3625 
L 3025 3200 
L 4775 3200 
z
M 1250 2000 
Q 1100 2150 375 2550 
Q 475 2700 600 2900 
Q 850 2750 1050 2650 
Q 1250 2550 1500 2375 
Q 1375 2225 1250 2000 
z
M 1075 4000 
Q 1575 3675 1875 3450 
Q 1725 3275 1600 3100 
Q 1325 3325 825 3675 
Q 975 3825 1075 4000 
z
M 5325 1850 
L 5325 2250 
L 4475 2250 
L 4475 1850 
L 5325 1850 
z
M 3250 1800 
L 3250 2250 
L 2475 2250 
L 2475 1825 
L 3250 1800 
z
" transform="scale(0.015625)"/>
      </defs>
      <use xlink:href="#SimHei-5bc6"/>
      <use xlink:href="#SimHei-96c6" x="100"/>
      <use xlink:href="#SimHei-9a6c" x="200"/>
      <use xlink:href="#SimHei-5c3e" x="300"/>
      <use xlink:href="#SimHei-85fb" x="400"/>
     </g>
    </g>
    <g id="patch_4">
     <path d="M 4.8 65.925 
L 28.8 65.925 
L 28.8 57.525 
L 4.8 57.525 
z
" style="fill: #90ee90; stroke: #000000; stroke-linejoin: miter"/>
    </g>
    <g id="text_4">
     <!-- 稀疏漂浮藻类 -->
     <g transform="translate(38.4 65.925) scale(0.12 -0.12)">
      <defs>
       <path id="SimHei-7a00" d="M 3625 2950 
Q 3800 3275 3875 3600 
Q 4150 3500 4450 3425 
Q 4275 3250 4150 2950 
L 5225 2950 
Q 5675 2950 6175 2975 
L 6175 2550 
Q 5675 2575 5250 2575 
L 3975 2575 
Q 3775 2200 3475 1825 
L 4150 1825 
Q 4150 2075 4125 2275 
L 4600 2275 
Q 4575 2050 4575 1825 
L 5900 1825 
Q 5875 1525 5875 1150 
L 5875 275 
Q 5875 -75 5700 -175 
Q 5525 -275 5125 -350 
Q 5075 -50 4925 175 
Q 5350 175 5400 212 
Q 5450 250 5450 450 
L 5450 1425 
L 4575 1425 
L 4575 75 
Q 4575 -250 4600 -650 
L 4125 -650 
Q 4150 -275 4150 75 
L 4150 1425 
L 3400 1425 
L 3400 -300 
L 2950 -300 
Q 2975 250 2975 1175 
Q 2550 775 2250 525 
Q 2075 800 1850 900 
Q 2400 1250 2787 1675 
Q 3175 2100 3450 2575 
Q 2925 2575 2450 2550 
L 2450 2975 
Q 2925 2950 3625 2950 
z
M 2550 4800 
Q 2175 4750 1675 4600 
L 1675 3475 
Q 1950 3475 2325 3500 
L 2325 3050 
Q 1950 3075 1675 3075 
L 1675 2300 
Q 1775 2425 1975 2600 
Q 2150 2325 2475 1875 
Q 2275 1750 2100 1575 
Q 2000 1800 1675 2225 
L 1675 375 
Q 1675 -100 1700 -650 
L 1200 -650 
Q 1225 0 1225 375 
L 1225 1875 
Q 1100 1525 962 1237 
Q 825 950 625 475 
Q 425 725 200 975 
Q 550 1350 787 1925 
Q 1025 2500 1150 3075 
Q 775 3075 300 3050 
L 300 3500 
Q 875 3475 1225 3475 
L 1225 4500 
Q 950 4450 700 4375 
Q 550 4625 375 4775 
Q 850 4850 1337 4962 
Q 1825 5075 2150 5300 
Q 2325 5050 2550 4800 
z
M 5525 4925 
Q 5300 4825 5125 4675 
Q 4950 4525 4700 4350 
Q 5350 4075 5900 3800 
Q 5675 3575 5600 3375 
Q 5275 3625 4325 4050 
Q 3925 3725 3550 3525 
Q 3175 3325 2875 3175 
Q 2700 3450 2500 3575 
Q 2975 3700 3275 3862 
Q 3575 4025 3925 4250 
Q 3600 4400 3325 4487 
Q 3050 4575 2775 4675 
Q 2900 4925 2975 5125 
Q 3225 5025 3500 4925 
Q 3775 4825 4275 4575 
Q 4900 5075 5025 5275 
Q 5250 5075 5525 4925 
z
" transform="scale(0.015625)"/>
       <path id="SimHei-758f" d="M 2525 4775 
Q 2300 4400 2162 4212 
Q 2025 4025 1775 3675 
L 1775 2650 
L 2400 2650 
L 2400 2275 
L 1775 2275 
L 1775 825 
Q 2075 925 2350 1025 
Q 2325 825 2350 600 
Q 2025 475 1425 262 
Q 825 50 475 -200 
Q 350 125 200 350 
Q 400 400 525 425 
L 525 2350 
Q 525 2575 500 3050 
L 975 3050 
Q 950 2600 950 2300 
L 950 575 
Q 1150 625 1350 700 
L 1350 2975 
Q 1350 3450 1300 3800 
Q 1475 3975 1725 4375 
L 1150 4375 
Q 850 4375 475 4350 
L 475 4800 
Q 850 4775 1150 4775 
L 2525 4775 
z
M 4050 5200 
Q 4225 4800 4325 4475 
L 4875 4475 
Q 5450 4475 5800 4500 
L 5800 4075 
Q 5425 4100 4875 4100 
L 3775 4100 
Q 3950 4000 4175 3875 
Q 3925 3700 3737 3450 
Q 3550 3200 3325 2950 
Q 3950 2950 4975 3000 
Q 4850 3200 4575 3450 
Q 4750 3550 4925 3725 
Q 5125 3525 5400 3225 
Q 5675 2925 5925 2625 
Q 5675 2450 5525 2325 
Q 5425 2475 5275 2650 
Q 4750 2625 4012 2575 
Q 3275 2525 2775 2425 
Q 2700 2650 2550 2900 
Q 2850 2950 3162 3350 
Q 3475 3750 3575 4100 
Q 3125 4100 2525 4075 
L 2525 4500 
Q 3075 4475 3800 4475 
Q 3700 4825 3575 5050 
Q 3850 5100 4050 5200 
z
M 5225 2150 
Q 5175 1775 5175 1400 
L 5175 225 
Q 5175 0 5350 0 
L 5550 0 
Q 5625 75 5650 187 
Q 5675 300 5675 625 
Q 5925 450 6175 400 
Q 6050 -150 5937 -300 
Q 5825 -450 5650 -450 
L 5175 -450 
Q 4750 -450 4750 -25 
L 4750 1475 
Q 4750 1850 4725 2150 
L 5225 2150 
z
M 3400 2100 
Q 3325 1925 3312 1612 
Q 3300 1300 3237 925 
Q 3175 550 3012 125 
Q 2850 -300 2475 -725 
Q 2350 -525 2000 -425 
Q 2350 -125 2525 162 
Q 2700 450 2775 762 
Q 2850 1075 2862 1437 
Q 2875 1800 2850 2200 
Q 3175 2125 3400 2100 
z
M 4275 2175 
Q 4225 1900 4225 1450 
L 4225 325 
Q 4225 0 4250 -475 
L 3775 -475 
Q 3800 0 3800 325 
L 3800 1450 
Q 3800 1950 3775 2175 
L 4275 2175 
z
" transform="scale(0.015625)"/>
       <path id="SimHei-6f02" d="M 3225 4150 
L 3225 4650 
L 2925 4650 
Q 2500 4650 2050 4625 
L 2050 5025 
Q 2450 5000 2925 5000 
L 4975 5000 
Q 5450 5000 5900 5025 
L 5900 4625 
Q 5475 4650 5000 4650 
L 4650 4650 
L 4650 4150 
L 5725 4150 
Q 5700 3800 5700 3450 
Q 5700 3100 5725 2775 
L 2175 2775 
Q 2200 3100 2200 3450 
Q 2200 3800 2175 4150 
L 3225 4150 
z
M 3200 -150 
Q 3750 -150 3750 75 
L 3750 1100 
L 2825 1100 
Q 2350 1100 1900 1075 
L 1900 1500 
Q 2350 1475 2975 1475 
L 5150 1475 
Q 5500 1475 5975 1500 
L 5975 1075 
Q 5525 1100 5175 1100 
L 4225 1100 
L 4225 -125 
Q 4225 -350 4037 -450 
Q 3850 -550 3475 -650 
Q 3375 -425 3200 -150 
z
M 225 -25 
Q 350 100 487 300 
Q 625 500 875 1037 
Q 1125 1575 1300 2150 
Q 1500 1900 1725 1775 
Q 1500 1350 1350 987 
Q 1200 625 1025 275 
Q 850 -75 725 -375 
Q 500 -200 225 -25 
z
M 4675 2350 
Q 5100 2350 5525 2375 
L 5525 1975 
Q 5100 2000 4700 2000 
L 3250 2000 
Q 2825 2000 2375 1975 
L 2375 2375 
Q 2825 2350 3225 2350 
L 4675 2350 
z
M 1800 -150 
Q 2050 50 2325 325 
Q 2600 600 2775 925 
Q 2975 825 3250 650 
Q 3100 500 2825 200 
Q 2550 -100 2175 -425 
Q 1975 -275 1800 -150 
z
M 5750 -450 
Q 5500 -175 5225 62 
Q 4950 300 4675 525 
Q 4825 625 5000 850 
Q 5275 600 5550 375 
Q 5825 150 6125 -75 
Q 5900 -275 5750 -450 
z
M 500 3775 
Q 725 3675 1050 3512 
Q 1375 3350 1675 3150 
Q 1475 2950 1400 2700 
Q 1175 2875 850 3050 
Q 525 3225 275 3350 
Q 425 3575 500 3775 
z
M 975 5225 
Q 1175 5100 1437 4900 
Q 1700 4700 1900 4500 
Q 1675 4325 1550 4125 
Q 1325 4350 1150 4512 
Q 975 4675 675 4850 
Q 850 4975 975 5225 
z
M 3225 3125 
L 3225 3775 
L 2650 3775 
L 2650 3125 
L 3225 3125 
z
M 4225 3125 
L 4225 3775 
L 3650 3775 
L 3650 3125 
L 4225 3125 
z
M 5225 3125 
L 5225 3775 
L 4650 3775 
L 4650 3125 
L 5225 3125 
z
M 4225 4150 
L 4225 4650 
L 3650 4650 
L 3650 4150 
L 4225 4150 
z
" transform="scale(0.015625)"/>
       <path id="SimHei-6d6e" d="M 3800 1950 
Q 4225 2150 4600 2375 
L 3400 2375 
Q 3025 2375 2425 2350 
L 2425 2825 
Q 3000 2800 3350 2800 
L 5575 2800 
L 5575 2325 
Q 5200 2175 4887 2025 
Q 4575 1875 4325 1725 
L 4325 1450 
L 5250 1450 
Q 5575 1450 6075 1475 
L 6075 1000 
Q 5600 1025 5275 1025 
L 4325 1025 
L 4325 25 
Q 4325 -275 4125 -412 
Q 3925 -550 3400 -650 
Q 3325 -325 3125 -25 
Q 3575 -50 3700 -25 
Q 3825 0 3825 350 
L 3825 1025 
L 2875 1025 
Q 2475 1025 1925 1000 
L 1925 1475 
Q 2500 1450 2875 1450 
L 3825 1450 
Q 3825 1725 3800 1950 
z
M 2200 4800 
Q 2750 4775 3912 4862 
Q 5075 4950 5475 5075 
Q 5575 4800 5775 4550 
Q 5400 4550 4350 4462 
Q 3300 4375 2425 4325 
Q 2375 4575 2200 4800 
z
M 1700 1600 
Q 975 -125 800 -500 
Q 625 -300 225 -150 
Q 475 125 750 737 
Q 1025 1350 1175 1925 
Q 1450 1675 1700 1600 
z
M 4600 3125 
Q 4750 3350 4950 3750 
Q 5150 4150 5225 4450 
Q 5475 4325 5775 4200 
Q 5675 4100 5450 3650 
Q 5225 3200 5075 2950 
Q 4875 3075 4600 3125 
z
M 725 3550 
Q 1275 3200 1800 2850 
Q 1575 2650 1450 2400 
Q 1075 2725 425 3125 
Q 575 3325 725 3550 
z
M 1050 5150 
Q 1575 4775 2075 4400 
Q 1875 4225 1700 4000 
Q 1275 4425 725 4750 
Q 900 4900 1050 5150 
z
M 3900 4325 
Q 4200 3750 4375 3375 
Q 4100 3300 3900 3150 
Q 3750 3575 3475 4125 
Q 3725 4225 3900 4325 
z
M 2800 4100 
Q 3075 3525 3250 3125 
Q 3025 3050 2775 2925 
Q 2625 3375 2350 3900 
Q 2600 3975 2800 4100 
z
" transform="scale(0.015625)"/>
       <path id="SimHei-7c7b" d="M 2125 3875 
Q 1750 4375 1325 4725 
Q 1525 4875 1675 5050 
L 2525 4225 
Q 2400 4125 2200 3875 
L 3025 3875 
L 3025 4550 
Q 3025 4900 3000 5125 
L 3525 5125 
Q 3500 4850 3500 4550 
L 3500 3875 
L 4325 3875 
Q 4125 4050 4000 4150 
Q 4450 4575 4800 5175 
Q 5000 5000 5275 4825 
Q 5100 4675 4912 4475 
Q 4725 4275 4400 3875 
L 5025 3875 
Q 5425 3875 5900 3900 
L 5900 3450 
Q 5425 3475 5025 3475 
L 3500 3475 
L 3500 3050 
Q 3500 2650 3525 2175 
L 3175 2175 
Q 3475 2075 3675 2000 
Q 3575 1875 3525 1575 
L 5025 1575 
Q 5525 1575 6025 1600 
L 6025 1150 
Q 5550 1175 5050 1175 
L 3675 1175 
Q 4050 600 4712 275 
Q 5375 -50 6050 -175 
Q 5850 -350 5725 -675 
Q 4975 -450 4350 -37 
Q 3725 375 3300 950 
Q 3050 350 2425 -50 
Q 1800 -450 775 -700 
Q 650 -425 475 -225 
Q 1375 -100 2012 225 
Q 2650 550 2900 1175 
L 1625 1175 
Q 1025 1175 525 1150 
L 525 1600 
Q 950 1575 1600 1575 
L 3025 1575 
Q 3075 1825 3100 2175 
L 3000 2175 
Q 3025 2675 3025 3050 
L 3025 3325 
Q 2725 2900 2237 2550 
Q 1750 2200 925 1825 
Q 850 2025 625 2275 
Q 1175 2400 1725 2737 
Q 2275 3075 2600 3475 
L 1550 3475 
Q 1050 3475 600 3425 
L 600 3900 
Q 1075 3875 1550 3875 
L 2125 3875 
z
M 4100 3450 
Q 4850 3000 5800 2350 
Q 5575 2125 5425 1925 
Q 4700 2550 3825 3075 
Q 3975 3250 4100 3450 
z
" transform="scale(0.015625)"/>
      </defs>
      <use xlink:href="#SimHei-7a00"/>
      <use xlink:href="#SimHei-758f" x="100"/>
      <use xlink:href="#SimHei-6f02" x="200"/>
      <use xlink:href="#SimHei-6d6e" x="300"/>
      <use xlink:href="#SimHei-85fb" x="400"/>
      <use xlink:href="#SimHei-7c7b" x="500"/>
     </g>
    </g>
    <g id="patch_5">
     <path d="M 4.8 83.08125 
L 28.8 83.08125 
L 28.8 74.68125 
L 4.8 74.68125 
z
" style="fill: #8b4513; stroke: #000000; stroke-linejoin: miter"/>
    </g>
    <g id="text_5">
     <!-- 天然有机物 -->
     <g transform="translate(38.4 83.08125) scale(0.12 -0.12)">
      <defs>
       <path id="SimHei-5929" d="M 4475 4900 
Q 4925 4900 5375 4925 
L 5375 4400 
Q 4925 4425 4475 4425 
L 3450 4425 
L 3450 3075 
L 5050 3075 
Q 5525 3075 5900 3100 
L 5900 2575 
Q 5550 2600 5075 2600 
L 3525 2600 
Q 3875 1650 4525 975 
Q 5175 300 6200 50 
Q 5850 -225 5775 -450 
Q 5000 -175 4350 412 
Q 3700 1000 3225 2100 
Q 2925 1075 2275 462 
Q 1625 -150 650 -575 
Q 550 -325 225 -100 
Q 950 100 1750 737 
Q 2550 1375 2875 2600 
L 1500 2600 
Q 950 2600 575 2575 
L 575 3100 
Q 975 3075 1500 3075 
L 2950 3075 
L 2950 4425 
L 1900 4425 
Q 1375 4425 1000 4400 
L 1000 4925 
Q 1400 4900 1900 4900 
L 4475 4900 
z
" transform="scale(0.015625)"/>
       <path id="SimHei-7136" d="M 2025 4950 
Q 1875 4750 1650 4325 
L 3100 4325 
Q 3025 3850 2837 3187 
Q 2650 2525 2087 1862 
Q 1525 1200 900 825 
Q 750 1025 450 1150 
Q 1050 1450 1475 1925 
Q 1300 2175 850 2500 
Q 1025 2650 1150 2850 
Q 1550 2525 1800 2250 
Q 1975 2450 2125 2700 
Q 1775 3050 1400 3300 
Q 1550 3475 1650 3650 
Q 2075 3350 2325 3100 
Q 2475 3425 2550 3925 
L 1475 3925 
Q 1175 3400 675 2725 
Q 475 2900 200 2975 
Q 675 3475 987 4087 
Q 1300 4700 1450 5150 
Q 1700 5025 2025 4950 
z
M 5775 3100 
Q 5425 3125 4525 3125 
Q 4700 2500 5112 2025 
Q 5525 1550 6125 1300 
Q 5800 1100 5625 875 
Q 5100 1225 4775 1650 
Q 4450 2075 4225 2625 
Q 4050 2150 3725 1675 
Q 3400 1200 2900 800 
Q 2725 1000 2425 1175 
Q 2900 1425 3275 1912 
Q 3650 2400 3875 3125 
Q 3375 3125 3000 3100 
L 3000 3525 
Q 3475 3500 3925 3500 
Q 3950 4700 3900 5050 
Q 4200 5000 4450 5000 
Q 4400 4575 4400 3500 
Q 5350 3500 5775 3525 
L 5775 3100 
z
M 5600 -625 
Q 5325 -75 4750 600 
Q 4975 700 5175 875 
Q 5750 150 6050 -350 
Q 5800 -425 5600 -625 
z
M 1525 450 
Q 1150 -75 775 -675 
Q 625 -525 325 -425 
Q 675 25 1075 750 
Q 1225 625 1525 450 
z
M 4025 -550 
Q 3850 -75 3400 525 
L 3800 775 
Q 4325 50 4475 -325 
Q 4150 -475 4025 -550 
z
M 2475 -600 
Q 2375 -200 2050 500 
Q 2325 550 2500 675 
Q 2800 125 2950 -425 
Q 2600 -525 2475 -600 
z
M 5475 3725 
Q 5125 4200 4725 4550 
Q 4850 4650 5025 4850 
Q 5450 4500 5825 4025 
Q 5650 3900 5475 3725 
z
" transform="scale(0.015625)"/>
       <path id="SimHei-6709" d="M 275 1625 
Q 850 1975 1400 2537 
Q 1950 3100 2400 3925 
L 1500 3925 
Q 1150 3925 625 3900 
L 625 4375 
Q 1275 4350 1600 4350 
L 2550 4350 
Q 2750 4950 2775 5225 
Q 3150 5125 3375 5075 
Q 3300 5000 3125 4350 
L 5150 4350 
Q 5575 4350 6025 4375 
L 6025 3900 
Q 5575 3925 5225 3925 
L 2975 3925 
Q 2800 3600 2600 3275 
L 5475 3275 
Q 5450 2650 5450 2150 
L 5450 125 
Q 5450 -225 5250 -387 
Q 5050 -550 4400 -600 
Q 4375 -325 4225 0 
Q 4600 -50 4775 -25 
Q 4950 0 4950 250 
L 4950 750 
L 2350 750 
L 2350 -575 
L 1800 -575 
Q 1825 50 1825 500 
L 1825 2275 
Q 1300 1675 725 1225 
Q 625 1400 275 1625 
z
M 4950 2175 
L 4950 2875 
L 2350 2875 
L 2350 2175 
L 4950 2175 
z
M 4950 1150 
L 4950 1775 
L 2350 1775 
L 2350 1150 
L 4950 1150 
z
" transform="scale(0.015625)"/>
       <path id="SimHei-673a" d="M 5100 4775 
Q 5075 4075 5075 3575 
L 5075 325 
Q 5075 0 5225 -25 
Q 5375 -50 5475 -37 
Q 5575 -25 5612 137 
Q 5650 300 5650 625 
Q 5875 500 6175 425 
Q 6075 -100 5975 -275 
Q 5875 -450 5650 -450 
L 5125 -450 
Q 4825 -450 4687 -312 
Q 4550 -175 4575 250 
L 4575 4350 
L 3625 4350 
Q 3625 2925 3587 2137 
Q 3550 1350 3362 712 
Q 3175 75 2625 -575 
Q 2500 -425 2175 -175 
Q 2525 100 2737 500 
Q 2950 900 3025 1325 
Q 3100 1750 3125 2225 
Q 3150 2700 3150 3425 
Q 3150 4175 3125 4775 
L 5100 4775 
z
M 2150 2725 
Q 2550 2175 2750 1875 
Q 2575 1725 2325 1550 
Q 2175 1875 1800 2425 
L 1800 600 
Q 1800 100 1825 -525 
L 1275 -525 
Q 1300 100 1300 600 
L 1300 2200 
Q 1175 1825 1025 1487 
Q 875 1150 600 725 
Q 375 975 200 1125 
Q 400 1350 725 2000 
Q 1050 2650 1225 3450 
L 1075 3450 
Q 725 3450 375 3400 
L 375 3875 
Q 725 3850 1050 3850 
L 1300 3850 
L 1300 4350 
Q 1300 4750 1275 5100 
L 1850 5100 
Q 1800 4850 1800 4350 
L 1800 3850 
L 2075 3850 
Q 2350 3850 2700 3875 
L 2700 3425 
Q 2150 3450 1800 3450 
L 1800 2450 
Q 1950 2575 2150 2725 
z
" transform="scale(0.015625)"/>
       <path id="SimHei-7269" d="M 5550 3775 
L 5225 3775 
Q 5175 2925 5062 2312 
Q 4950 1700 4700 1225 
Q 4450 750 4087 337 
Q 3725 -75 3100 -475 
Q 2950 -250 2650 -75 
Q 3275 175 3662 575 
Q 4050 975 4275 1462 
Q 4500 1950 4600 2537 
Q 4700 3125 4750 3775 
L 4325 3775 
Q 4250 3025 3912 2275 
Q 3575 1525 3075 1025 
Q 2925 1250 2600 1350 
Q 3175 1825 3462 2400 
Q 3750 2975 3875 3775 
L 3500 3775 
Q 3175 3125 2950 2800 
Q 2750 2975 2500 3050 
Q 3025 3750 3275 4375 
Q 3525 5000 3575 5275 
Q 3925 5125 4200 5050 
Q 4075 4950 3962 4725 
Q 3850 4500 3725 4200 
L 6075 4200 
Q 5975 3100 5937 1850 
Q 5900 600 5862 225 
Q 5825 -150 5500 -287 
Q 5175 -425 4550 -500 
Q 4525 -225 4300 75 
Q 5025 25 5187 100 
Q 5350 175 5375 525 
L 5550 3775 
z
M 1250 4325 
Q 1100 4125 1025 3700 
L 1600 3700 
L 1600 4525 
Q 1600 4900 1550 5200 
L 2100 5200 
Q 2075 4900 2075 4525 
L 2075 3700 
Q 2325 3700 2650 3725 
L 2650 3275 
Q 2300 3300 2075 3300 
L 2075 2000 
Q 2500 2100 2775 2225 
Q 2775 2000 2800 1775 
Q 2475 1675 2075 1550 
L 2075 375 
Q 2075 -50 2100 -600 
L 1550 -600 
Q 1600 -100 1600 375 
L 1600 1425 
Q 1325 1350 1062 1262 
Q 800 1175 500 1025 
Q 425 1250 250 1575 
Q 700 1625 1600 1850 
L 1600 3300 
L 950 3300 
Q 850 2825 725 2375 
Q 475 2500 225 2500 
Q 450 3025 537 3512 
Q 625 4000 650 4425 
Q 925 4350 1250 4325 
z
" transform="scale(0.015625)"/>
      </defs>
      <use xlink:href="#SimHei-5929"/>
      <use xlink:href="#SimHei-7136" x="100"/>
      <use xlink:href="#SimHei-6709" x="200"/>
      <use xlink:href="#SimHei-673a" x="300"/>
      <use xlink:href="#SimHei-7269" x="400"/>
     </g>
    </g>
    <g id="patch_6">
     <path d="M 4.8 100.2375 
L 28.8 100.2375 
L 28.8 91.8375 
L 4.8 91.8375 
z
" style="fill: #800080; stroke: #000000; stroke-linejoin: miter"/>
    </g>
    <g id="text_6">
     <!-- 船只 -->
     <g transform="translate(38.4 100.2375) scale(0.12 -0.12)">
      <defs>
       <path id="SimHei-8239" d="M 2075 5100 
Q 1900 4750 1800 4500 
L 2825 4500 
Q 2800 4075 2800 3675 
L 2800 300 
Q 2825 -325 1900 -375 
Q 1875 -100 1750 175 
Q 2350 125 2350 450 
L 2350 2100 
L 1175 2100 
Q 1175 1625 1112 1100 
Q 1050 575 925 162 
Q 800 -250 650 -550 
Q 450 -325 225 -200 
Q 375 25 487 350 
Q 600 675 662 1100 
Q 725 1525 725 2100 
Q 500 2100 250 2075 
L 250 2525 
Q 550 2500 725 2500 
L 725 3675 
Q 725 4050 700 4500 
L 1325 4500 
Q 1525 5075 1550 5275 
Q 1850 5150 2075 5100 
z
M 5775 2050 
Q 5750 1625 5750 825 
Q 5750 25 5775 -500 
L 5275 -500 
L 5275 -25 
L 3850 -25 
L 3850 -525 
L 3350 -525 
Q 3375 -25 3375 800 
Q 3375 1625 3350 2050 
L 5775 2050 
z
M 5475 4800 
Q 5450 4475 5450 4125 
L 5450 3350 
Q 5450 3025 5587 3012 
Q 5725 3000 6200 3000 
Q 6125 2800 6100 2525 
L 5400 2525 
Q 4975 2600 4975 3000 
L 4975 4400 
L 3925 4400 
Q 3925 3425 3800 3037 
Q 3675 2650 3350 2250 
Q 3150 2450 2925 2600 
Q 3400 2950 3425 3687 
Q 3450 4425 3425 4800 
L 5475 4800 
z
M 2350 2500 
L 2350 4100 
L 1175 4100 
L 1175 2500 
L 2350 2500 
z
M 5275 375 
L 5275 1650 
L 3850 1650 
L 3850 375 
L 5275 375 
z
M 1775 1800 
Q 1900 1475 2125 900 
Q 1850 825 1675 725 
Q 1475 1425 1375 1650 
Q 1550 1725 1775 1800 
z
M 1850 3800 
Q 1925 3550 2125 2950 
Q 1850 2900 1675 2825 
Q 1625 3125 1450 3675 
Q 1650 3725 1850 3800 
z
" transform="scale(0.015625)"/>
       <path id="SimHei-53ea" d="M 5150 4800 
Q 5125 4375 5125 3400 
Q 5125 2450 5150 1875 
L 1225 1875 
Q 1250 2325 1250 3300 
Q 1250 4275 1225 4800 
L 5150 4800 
z
M 4600 2325 
L 4600 4375 
L 1775 4375 
L 1775 2325 
L 4600 2325 
z
M 4175 1575 
Q 5400 300 5925 -200 
Q 5850 -250 5425 -600 
Q 4975 0 3750 1225 
Q 3975 1375 4175 1575 
z
M 2575 1200 
Q 2250 850 1775 337 
Q 1300 -175 800 -675 
Q 625 -500 375 -275 
Q 825 50 1300 562 
Q 1775 1075 2125 1600 
Q 2425 1375 2575 1200 
z
" transform="scale(0.015625)"/>
      </defs>
      <use xlink:href="#SimHei-8239"/>
      <use xlink:href="#SimHei-53ea" x="100"/>
     </g>
    </g>
    <g id="patch_7">
     <path d="M 4.8 117.346875 
L 28.8 117.346875 
L 28.8 108.946875 
L 4.8 108.946875 
z
" style="fill: #0000ff; stroke: #000000; stroke-linejoin: miter"/>
    </g>
    <g id="text_7">
     <!-- 海水 -->
     <g transform="translate(38.4 117.346875) scale(0.12 -0.12)">
      <defs>
       <path id="SimHei-6c34" d="M 3450 5175 
Q 3450 4800 3437 4500 
Q 3425 4200 3487 3762 
Q 3550 3325 3950 2725 
Q 4975 3575 5175 4050 
Q 5450 3800 5675 3575 
Q 5350 3350 5037 3075 
Q 4725 2800 4175 2325 
Q 4375 1900 4900 1375 
Q 5425 850 6175 625 
Q 5750 425 5675 125 
Q 4725 700 4212 1400 
Q 3700 2100 3425 2800 
L 3425 25 
Q 3450 -325 3162 -475 
Q 2875 -625 2400 -675 
Q 2375 -400 2175 -75 
Q 2575 -150 2750 -100 
Q 2925 -50 2925 225 
L 2925 4175 
Q 2925 4800 2875 5175 
L 3450 5175 
z
M 2550 3575 
Q 2425 2900 2237 2362 
Q 2050 1825 1737 1300 
Q 1425 775 750 100 
Q 575 325 225 450 
Q 925 950 1337 1600 
Q 1750 2250 1950 3125 
L 1275 3125 
Q 900 3125 425 3075 
L 425 3600 
Q 875 3575 1250 3575 
L 2550 3575 
z
" transform="scale(0.015625)"/>
      </defs>
      <use xlink:href="#SimHei-6d77"/>
      <use xlink:href="#SimHei-6c34" x="100"/>
     </g>
    </g>
    <g id="patch_8">
     <path d="M 4.8 134.503125 
L 28.8 134.503125 
L 28.8 126.103125 
L 4.8 126.103125 
z
" style="fill: #d2b48c; stroke: #000000; stroke-linejoin: miter"/>
    </g>
    <g id="text_8">
     <!-- 含沉积物水体 -->
     <g transform="translate(38.4 134.503125) scale(0.12 -0.12)">
      <defs>
       <path id="SimHei-542b" d="M 4525 -575 
L 4525 -200 
L 1850 -200 
L 1850 -625 
L 1325 -625 
Q 1350 -275 1350 275 
Q 1350 850 1325 1450 
L 5050 1450 
Q 5025 1175 5025 425 
Q 5025 -300 5050 -575 
L 4525 -575 
z
M 3350 4850 
Q 3625 4525 4325 4062 
Q 5025 3600 6150 3300 
Q 5850 3075 5750 2750 
Q 5050 3025 4337 3462 
Q 3625 3900 3125 4500 
Q 2500 3800 1912 3387 
Q 1325 2975 625 2650 
Q 550 2850 275 3100 
Q 1100 3325 1862 3925 
Q 2625 4525 2975 5275 
Q 3325 5150 3525 5050 
L 3350 4850 
z
M 4525 200 
L 4525 1050 
L 1850 1050 
L 1850 200 
L 4525 200 
z
M 4775 2875 
Q 4525 2600 4200 2200 
Q 3875 1800 3600 1500 
Q 3425 1675 3250 1750 
Q 3525 2025 3875 2500 
L 1975 2500 
Q 1750 2500 1350 2475 
L 1350 2900 
Q 1750 2875 1975 2875 
L 4775 2875 
z
M 3050 3925 
Q 3425 3400 3475 3225 
Q 3375 3200 3050 3025 
Q 2850 3475 2675 3700 
Q 2925 3800 3050 3925 
z
" transform="scale(0.015625)"/>
       <path id="SimHei-6c89" d="M 4900 3200 
Q 4875 2750 4875 2300 
L 4875 225 
Q 4875 75 5000 50 
Q 5125 25 5300 37 
Q 5475 50 5525 162 
Q 5575 275 5625 800 
Q 5900 675 6175 625 
Q 6050 -25 5925 -212 
Q 5800 -400 5475 -400 
L 4925 -400 
Q 4400 -400 4400 75 
L 4400 2750 
L 3450 2750 
Q 3450 2100 3400 1550 
Q 3350 1000 3137 487 
Q 2925 -25 2300 -600 
Q 2100 -400 1775 -225 
Q 2300 100 2550 487 
Q 2800 875 2862 1250 
Q 2925 1625 2950 2150 
Q 2975 2675 2950 3200 
L 4900 3200 
z
M 5900 4725 
Q 5875 4400 5875 4075 
Q 5875 3750 5900 3425 
L 5350 3425 
L 5350 4275 
L 2575 4275 
L 2575 3400 
L 2050 3400 
Q 2075 3750 2075 4075 
Q 2075 4400 2050 4725 
L 5900 4725 
z
M 2075 1650 
Q 1925 1450 1487 637 
Q 1050 -175 900 -475 
Q 650 -250 300 -50 
Q 650 275 1037 950 
Q 1425 1625 1600 1975 
Q 1800 1800 2075 1650 
z
M 550 3375 
Q 1275 3000 1700 2750 
Q 1500 2475 1375 2250 
Q 900 2650 275 2900 
Q 425 3100 550 3375 
z
M 950 5050 
Q 1450 4650 1900 4300 
Q 1650 4075 1525 3850 
Q 1100 4300 575 4600 
Q 800 4825 950 5050 
z
" transform="scale(0.015625)"/>
       <path id="SimHei-79ef" d="M 5675 4700 
Q 5650 4275 5650 3575 
L 5650 2750 
Q 5650 2225 5675 1750 
L 3100 1750 
Q 3125 2225 3125 2750 
L 3125 3600 
Q 3125 4275 3100 4700 
L 5675 4700 
z
M 2850 4625 
Q 2600 4575 2400 4525 
Q 2200 4475 1925 4425 
L 1925 3275 
Q 2525 3275 2875 3300 
L 2875 2825 
Q 2525 2850 1925 2850 
L 1925 2075 
Q 2125 2225 2250 2350 
Q 2650 1775 2875 1450 
Q 2750 1375 2450 1150 
Q 2250 1575 1925 2000 
L 1925 300 
Q 1925 -75 1950 -675 
L 1425 -675 
Q 1475 -75 1475 300 
L 1475 1925 
Q 1275 1475 1125 1225 
Q 975 975 650 525 
Q 450 700 200 825 
Q 575 1200 900 1750 
Q 1225 2300 1375 2850 
Q 1025 2850 300 2825 
L 300 3300 
Q 1025 3275 1475 3275 
L 1475 4325 
Q 975 4250 525 4175 
Q 450 4400 350 4625 
Q 675 4600 1462 4750 
Q 2250 4900 2550 5075 
Q 2725 4775 2850 4625 
z
M 5175 2175 
L 5175 4300 
L 3575 4300 
L 3575 2175 
L 5175 2175 
z
M 4025 1075 
Q 3875 850 3512 350 
Q 3150 -150 2700 -650 
Q 2525 -475 2300 -300 
Q 2625 -50 2950 375 
Q 3275 800 3575 1400 
Q 3825 1200 4025 1075 
z
M 5050 1325 
Q 5275 1025 5587 625 
Q 5900 225 6200 -225 
Q 5900 -400 5725 -550 
Q 5550 -225 5200 287 
Q 4850 800 4650 1025 
Q 4850 1150 5050 1325 
z
" transform="scale(0.015625)"/>
       <path id="SimHei-4f53" d="M 3650 3850 
Q 3650 4750 3625 5125 
L 4125 5125 
Q 4100 4775 4100 3850 
L 5200 3850 
Q 5700 3850 5925 3875 
L 5925 3425 
Q 5700 3450 5200 3450 
L 4525 3450 
Q 4925 1850 6200 1200 
Q 5925 1050 5775 775 
Q 4425 1800 4100 3425 
L 4100 1025 
Q 4825 1025 5050 1050 
L 5050 600 
Q 4825 625 4100 625 
Q 4100 75 4125 -575 
L 3625 -575 
Q 3650 100 3650 625 
Q 3200 625 2700 600 
L 2700 1050 
Q 3200 1025 3650 1025 
L 3650 3450 
Q 3375 1800 2000 650 
Q 1850 875 1550 1025 
Q 2850 1875 3200 3450 
L 2675 3450 
Q 2275 3450 1975 3425 
L 1975 3875 
Q 2275 3850 2675 3850 
L 3650 3850 
z
M 2000 4900 
Q 1825 4675 1525 3775 
L 1525 575 
Q 1525 -200 1550 -550 
L 1050 -550 
Q 1075 -225 1075 550 
L 1075 2900 
Q 950 2625 575 2050 
Q 450 2275 225 2425 
Q 525 2725 925 3612 
Q 1325 4500 1425 5125 
Q 1700 5000 2000 4900 
z
" transform="scale(0.015625)"/>
      </defs>
      <use xlink:href="#SimHei-542b"/>
      <use xlink:href="#SimHei-6c89" x="100"/>
      <use xlink:href="#SimHei-79ef" x="200"/>
      <use xlink:href="#SimHei-7269" x="300"/>
      <use xlink:href="#SimHei-6c34" x="400"/>
      <use xlink:href="#SimHei-4f53" x="500"/>
     </g>
    </g>
    <g id="patch_9">
     <path d="M 4.8 151.6125 
L 28.8 151.6125 
L 28.8 143.2125 
L 4.8 143.2125 
z
" style="fill: #add8e6; stroke: #000000; stroke-linejoin: miter"/>
    </g>
    <g id="text_9">
     <!-- 泡沫 -->
     <g transform="translate(38.4 151.6125) scale(0.12 -0.12)">
      <defs>
       <path id="SimHei-6ce1" d="M 6200 325 
Q 6100 -250 5887 -375 
Q 5675 -500 5400 -475 
L 3325 -475 
Q 2650 -500 2625 125 
L 2625 3100 
Q 2525 2950 2325 2675 
Q 2125 2925 1825 2975 
Q 2200 3300 2625 4100 
Q 3050 4900 3075 5300 
Q 3375 5175 3725 5100 
Q 3550 4950 3325 4350 
L 5775 4350 
Q 5775 3875 5762 3175 
Q 5750 2475 5737 1887 
Q 5725 1300 5537 1150 
Q 5350 1000 4875 875 
Q 4850 1125 4625 1400 
Q 4875 1425 5037 1462 
Q 5200 1500 5237 2025 
Q 5275 2550 5275 3975 
L 3150 3975 
Q 2950 3575 2700 3200 
L 4500 3200 
Q 4475 2800 4475 2225 
Q 4475 1675 4500 1325 
L 3100 1325 
L 3100 275 
Q 3075 -100 3475 -75 
L 5350 -75 
Q 5525 -75 5587 50 
Q 5650 175 5650 550 
Q 5900 375 6200 325 
z
M 1900 1625 
Q 1625 1025 1375 400 
Q 1125 -225 1000 -625 
Q 750 -450 400 -300 
Q 625 -75 1012 750 
Q 1400 1575 1475 1950 
Q 1675 1725 1900 1625 
z
M 4000 1700 
L 4000 2800 
L 3100 2800 
L 3100 1700 
L 4000 1700 
z
M 975 4975 
Q 1450 4725 2050 4300 
Q 1825 4100 1700 3850 
Q 1250 4275 675 4575 
Q 825 4750 975 4975 
z
M 1400 2450 
Q 925 2800 300 3125 
Q 450 3275 575 3525 
Q 1325 3125 1675 2900 
Q 1525 2700 1400 2450 
z
" transform="scale(0.015625)"/>
       <path id="SimHei-6cab" d="M 1700 200 
Q 2125 375 2637 900 
Q 3150 1425 3600 2225 
L 3050 2225 
Q 2725 2225 2450 2200 
L 2450 2650 
Q 2750 2625 3075 2625 
L 3775 2625 
L 3775 3700 
L 2900 3700 
Q 2550 3700 2225 3675 
L 2225 4125 
Q 2575 4100 2900 4100 
L 3775 4100 
L 3775 4550 
Q 3775 4875 3750 5175 
L 4325 5175 
Q 4275 4950 4275 4575 
L 4275 4100 
L 5150 4100 
Q 5475 4100 5800 4125 
L 5800 3675 
Q 5525 3700 5175 3700 
L 4275 3700 
L 4275 2625 
L 4950 2625 
Q 5350 2625 5700 2650 
L 5700 2200 
Q 5375 2225 4950 2225 
L 4400 2225 
Q 4625 1775 5112 1162 
Q 5600 550 6175 250 
Q 5850 75 5725 -150 
Q 5100 300 4762 800 
Q 4425 1300 4275 1625 
L 4275 275 
Q 4275 -200 4300 -600 
L 3725 -600 
Q 3775 -200 3775 275 
L 3775 1600 
Q 3500 1200 3125 737 
Q 2750 275 2150 -225 
Q 2025 25 1700 200 
z
M 350 -75 
Q 650 225 1000 875 
Q 1350 1525 1475 1875 
Q 1725 1725 1950 1625 
Q 1750 1325 1400 637 
Q 1050 -50 900 -400 
Q 575 -200 350 -75 
z
M 1375 2275 
Q 925 2700 375 3050 
Q 500 3175 675 3425 
Q 1250 3075 1750 2675 
Q 1525 2475 1375 2275 
z
M 1725 3875 
Q 1225 4375 800 4675 
Q 925 4775 1100 5025 
Q 1650 4650 2075 4250 
Q 1875 4050 1725 3875 
z
" transform="scale(0.015625)"/>
      </defs>
      <use xlink:href="#SimHei-6ce1"/>
      <use xlink:href="#SimHei-6cab" x="100"/>
     </g>
    </g>
    <g id="patch_10">
     <path d="M 4.8 168.675 
L 28.8 168.675 
L 28.8 160.275 
L 4.8 160.275 
z
" style="fill: #696969; stroke: #000000; stroke-linejoin: miter"/>
    </g>
    <g id="text_10">
     <!-- 浑浊水 -->
     <g transform="translate(38.4 168.675) scale(0.12 -0.12)">
      <defs>
       <path id="SimHei-6d51" d="M 2275 3500 
Q 2600 3475 2925 3475 
L 3225 3475 
Q 3400 3850 3475 4225 
Q 3700 4100 4000 4000 
Q 3900 3900 3700 3475 
L 5150 3475 
Q 5550 3475 5725 3500 
L 5725 3050 
Q 5650 3075 5175 3075 
L 3550 3075 
Q 3225 2450 3000 2050 
L 3900 2050 
Q 3900 2450 3875 2800 
L 4400 2800 
Q 4325 2475 4350 2050 
L 4975 2050 
Q 5425 2050 5675 2075 
L 5675 1625 
Q 5450 1650 4975 1650 
L 4350 1650 
L 4350 950 
L 5250 950 
Q 5650 950 6075 975 
L 6075 500 
Q 5675 525 5250 525 
L 4350 525 
L 4350 50 
Q 4350 -275 4375 -625 
L 3875 -625 
Q 3900 -275 3900 50 
L 3900 525 
L 2650 525 
Q 2325 525 2050 500 
L 2050 975 
Q 2300 950 2675 950 
L 3900 950 
L 3900 1650 
Q 3225 1650 2950 1625 
Q 2675 1600 2450 1550 
Q 2375 1750 2250 2000 
Q 2500 2050 2675 2325 
Q 2850 2600 3075 3075 
Q 2500 3075 2275 3050 
L 2275 3500 
z
M 5925 4850 
Q 5900 4525 5900 4325 
Q 5900 4150 5925 3850 
L 5450 3850 
L 5450 4450 
L 2650 4450 
L 2650 3800 
L 2175 3800 
Q 2200 4100 2200 4325 
Q 2200 4575 2175 4850 
L 5925 4850 
z
M 2025 1600 
Q 1825 1225 1475 575 
Q 1125 -75 900 -500 
Q 725 -350 425 -200 
Q 650 75 975 637 
Q 1300 1200 1600 1925 
Q 1850 1675 2025 1600 
z
M 575 3525 
Q 1225 3100 1750 2750 
Q 1550 2550 1450 2325 
Q 850 2800 300 3125 
Q 475 3300 575 3525 
z
M 850 5000 
Q 1475 4600 1900 4300 
Q 1725 4125 1600 3900 
Q 1025 4375 575 4625 
Q 750 4825 850 5000 
z
" transform="scale(0.015625)"/>
       <path id="SimHei-6d4a" d="M 3650 3975 
Q 3650 4675 3625 5225 
L 4175 5225 
Q 4150 4750 4150 3975 
L 5625 3975 
Q 5600 3575 5600 2650 
Q 5600 1750 5625 1300 
L 5075 1300 
L 5075 1600 
L 4150 1600 
L 4150 150 
Q 4725 175 5325 225 
Q 5200 550 5000 875 
Q 5250 925 5550 1000 
Q 5875 250 6175 -475 
Q 5850 -550 5650 -650 
Q 5575 -400 5450 -150 
Q 4875 -200 3750 -300 
Q 2625 -400 2075 -500 
Q 2025 -275 1775 75 
Q 2325 75 2762 87 
Q 3200 100 3650 125 
L 3650 1600 
L 2750 1600 
L 2750 1100 
L 2225 1100 
Q 2250 1625 2250 2500 
Q 2250 3400 2225 3975 
L 3650 3975 
z
M 5075 2000 
L 5075 3550 
L 4150 3550 
L 4150 2000 
L 5075 2000 
z
M 3650 2000 
L 3650 3550 
L 2750 3550 
L 2750 2000 
L 3650 2000 
z
M 1675 1400 
Q 1525 1125 1287 525 
Q 1050 -75 900 -625 
Q 575 -450 250 -300 
Q 525 0 800 587 
Q 1075 1175 1225 1700 
Q 1450 1525 1675 1400 
z
M 1425 2225 
Q 925 2600 250 2950 
Q 400 3125 550 3325 
Q 1150 3025 1775 2650 
Q 1575 2475 1425 2225 
z
M 1600 3850 
Q 1100 4275 550 4575 
Q 750 4750 925 4950 
Q 1425 4650 1975 4250 
Q 1775 4100 1600 3850 
z
" transform="scale(0.015625)"/>
      </defs>
      <use xlink:href="#SimHei-6d51"/>
      <use xlink:href="#SimHei-6d4a" x="100"/>
      <use xlink:href="#SimHei-6c34" x="200"/>
     </g>
    </g>
    <g id="patch_11">
     <path d="M 4.8 185.784375 
L 28.8 185.784375 
L 28.8 177.384375 
L 4.8 177.384375 
z
" style="fill: #00ffff; stroke: #000000; stroke-linejoin: miter"/>
    </g>
    <g id="text_11">
     <!-- 浅水 -->
     <g transform="translate(38.4 185.784375) scale(0.12 -0.12)">
      <defs>
       <path id="SimHei-6d45" d="M 6175 325 
Q 6100 -425 5900 -575 
Q 5700 -725 5200 -487 
Q 4700 -250 4125 450 
Q 3800 200 3437 12 
Q 3075 -175 2450 -425 
Q 2375 -200 2050 25 
Q 2450 100 2912 275 
Q 3375 450 3900 825 
Q 3650 1350 3475 1925 
Q 2550 1700 2300 1575 
L 2175 2100 
Q 2425 2125 3375 2350 
Q 3300 2775 3275 3150 
Q 2550 3025 2250 2925 
L 2100 3375 
Q 2500 3425 3250 3575 
Q 3225 4800 3200 5200 
Q 3575 5125 3800 5150 
Q 3725 4925 3725 4550 
L 3725 3650 
Q 4975 3900 5575 4100 
L 5750 3675 
Q 5375 3600 4937 3500 
Q 4500 3400 3750 3250 
Q 3775 2900 3850 2450 
Q 4950 2725 5675 3000 
L 5950 2575 
Q 5675 2525 5200 2387 
Q 4725 2250 3950 2050 
Q 4000 1625 4250 1125 
Q 5050 1775 5225 2100 
Q 5475 1900 5700 1775 
Q 5500 1600 5250 1375 
Q 5000 1150 4500 725 
Q 4800 325 5162 87 
Q 5525 -150 5575 -62 
Q 5625 25 5650 550 
Q 5875 350 6175 325 
z
M 1600 1575 
Q 1475 1400 1250 825 
Q 1025 250 800 -425 
Q 575 -275 225 -175 
Q 475 175 737 800 
Q 1000 1425 1150 1950 
Q 1325 1750 1600 1575 
z
M 1725 3900 
Q 1350 4300 825 4725 
Q 925 4850 1150 5050 
Q 1600 4750 2125 4275 
Q 1925 4150 1725 3900 
z
M 1350 2525 
Q 950 2850 375 3225 
Q 500 3375 650 3600 
Q 1250 3250 1700 2950 
Q 1500 2775 1350 2525 
z
M 4650 5150 
Q 4950 4825 5300 4425 
Q 5075 4350 4850 4125 
Q 4575 4550 4275 4900 
Q 4500 5000 4650 5150 
z
" transform="scale(0.015625)"/>
      </defs>
      <use xlink:href="#SimHei-6d45"/>
      <use xlink:href="#SimHei-6c34" x="100"/>
     </g>
    </g>
    <g id="patch_12">
     <path d="M 4.8 202.9875 
L 28.8 202.9875 
L 28.8 194.5875 
L 4.8 194.5875 
z
" style="fill: #87cefa; stroke: #000000; stroke-linejoin: miter"/>
    </g>
    <g id="text_12">
     <!-- 波浪与尾流 -->
     <g transform="translate(38.4 202.9875) scale(0.12 -0.12)">
      <defs>
       <path id="SimHei-6ce2" d="M 5075 3275 
Q 5175 3600 5225 3850 
L 4325 3850 
L 4325 2750 
L 5550 2750 
Q 5400 2100 5125 1512 
Q 4850 925 4525 550 
Q 4775 350 5200 175 
Q 5625 0 6175 -100 
Q 5900 -300 5775 -600 
Q 5250 -425 4800 -175 
Q 4350 75 4200 225 
Q 3950 25 3537 -212 
Q 3125 -450 2500 -675 
Q 2375 -500 2050 -375 
Q 2525 -250 3062 25 
Q 3600 300 3850 550 
Q 3325 1300 3075 2325 
L 2825 2325 
Q 2800 1400 2487 725 
Q 2175 50 1875 -300 
Q 1700 -150 1375 -50 
Q 1750 325 1950 712 
Q 2150 1100 2262 1475 
Q 2375 1850 2387 2825 
Q 2400 3800 2350 4275 
L 3875 4275 
Q 3875 4850 3850 5200 
L 4350 5200 
Q 4325 4900 4325 4275 
L 5850 4275 
Q 5825 4125 5750 3837 
Q 5675 3550 5600 3200 
Q 5300 3250 5075 3275 
z
M 3525 2325 
Q 3800 1400 4200 925 
Q 4650 1475 4925 2325 
L 3525 2325 
z
M 1950 1700 
Q 1700 1375 1262 712 
Q 825 50 675 -200 
Q 475 50 225 275 
Q 525 525 937 1100 
Q 1350 1675 1550 2100 
L 1950 1700 
z
M 3875 2750 
L 3875 3850 
L 2850 3850 
L 2850 2750 
L 3875 2750 
z
M 925 4925 
Q 1600 4525 2000 4250 
Q 1800 4025 1675 3800 
Q 1250 4150 625 4500 
Q 775 4700 925 4925 
z
M 600 3525 
Q 1125 3250 1725 2850 
Q 1525 2675 1400 2425 
Q 925 2825 350 3100 
Q 450 3275 600 3525 
z
" transform="scale(0.015625)"/>
       <path id="SimHei-6d6a" d="M 3675 775 
Q 3750 450 3900 300 
Q 3650 100 3225 -187 
Q 2800 -475 2550 -650 
Q 2425 -450 2200 -225 
Q 2400 -50 2375 200 
L 2375 3325 
Q 2375 3875 2350 4350 
L 3775 4350 
Q 3575 4725 3300 5025 
Q 3575 5150 3750 5275 
Q 4075 4875 4250 4600 
Q 4075 4500 3850 4350 
L 5475 4350 
Q 5450 3950 5450 3050 
Q 5450 2175 5475 1875 
L 4025 1875 
Q 4175 1350 4475 950 
Q 5000 1300 5325 1675 
Q 5500 1500 5825 1325 
Q 5625 1225 5387 1062 
Q 5150 900 4800 625 
Q 5400 125 6150 0 
Q 5900 -250 5800 -550 
Q 4950 -225 4375 325 
Q 3800 875 3525 1875 
L 2850 1875 
L 2850 150 
Q 3300 425 3675 775 
z
M 4950 3300 
L 4950 3950 
L 2850 3950 
L 2850 3300 
L 4950 3300 
z
M 4950 2275 
L 4950 2900 
L 2850 2900 
L 2850 2275 
L 4950 2275 
z
M 1850 1350 
Q 1575 950 1275 425 
Q 975 -100 825 -500 
Q 525 -275 225 -75 
Q 500 175 875 737 
Q 1250 1300 1400 1725 
Q 1625 1500 1850 1350 
z
M 550 3300 
Q 1125 3050 1800 2650 
Q 1600 2450 1450 2200 
Q 950 2550 250 2875 
Q 400 3075 550 3300 
z
M 975 4875 
Q 1425 4575 2050 4150 
Q 1825 3975 1650 3700 
Q 1250 4100 575 4500 
Q 775 4675 975 4875 
z
" transform="scale(0.015625)"/>
       <path id="SimHei-4e0e" d="M 5350 100 
Q 5275 -300 4925 -425 
Q 4575 -550 3900 -600 
Q 3875 -375 3650 -25 
Q 4375 -50 4575 0 
Q 4775 50 4837 225 
Q 4900 400 5100 2350 
L 1125 2350 
Q 1450 4350 1475 5200 
Q 1800 5150 2075 5125 
Q 1975 4825 1900 4275 
L 4900 4275 
Q 5400 4275 5800 4300 
L 5800 3825 
Q 5400 3850 4950 3850 
L 1850 3850 
L 1700 2750 
L 5675 2750 
Q 5625 2450 5575 2050 
L 5350 100 
z
M 3675 1350 
Q 4125 1350 4500 1375 
L 4500 875 
Q 4125 900 3850 900 
L 1450 900 
Q 1000 900 500 875 
L 500 1375 
Q 1000 1350 1450 1350 
L 3675 1350 
z
" transform="scale(0.015625)"/>
       <path id="SimHei-6d41" d="M 3725 5250 
Q 3975 4875 4225 4450 
L 5025 4450 
Q 5425 4450 5925 4475 
L 5925 4025 
Q 5325 4050 5025 4050 
L 3425 4050 
Q 3625 3900 3775 3825 
Q 3650 3725 3450 3475 
Q 3250 3225 2850 2775 
Q 3750 2800 4775 2850 
Q 4525 3150 4275 3375 
Q 4525 3550 4625 3675 
Q 5325 2950 5800 2375 
Q 5575 2200 5400 2050 
Q 5200 2325 5050 2525 
Q 4500 2475 3562 2412 
Q 2625 2350 2300 2250 
Q 2225 2475 2075 2675 
Q 2325 2750 2675 3175 
Q 3025 3600 3250 4050 
L 2975 4050 
Q 2525 4050 2050 4000 
L 2050 4475 
Q 2525 4450 2975 4450 
L 3675 4450 
Q 3475 4800 3325 5000 
Q 3575 5125 3725 5250 
z
M 5025 2025 
Q 5000 1700 5000 1375 
L 5000 150 
Q 5000 -75 5225 -75 
L 5475 -75 
Q 5675 -75 5700 500 
Q 5900 350 6200 275 
Q 6050 -350 5887 -425 
Q 5725 -500 5500 -500 
L 5025 -500 
Q 4550 -500 4550 -25 
L 4550 1425 
Q 4550 1725 4525 2025 
L 5025 2025 
z
M 3125 1975 
Q 3075 1725 3037 1212 
Q 3000 700 2812 225 
Q 2625 -250 1950 -700 
Q 1775 -475 1575 -325 
Q 2075 -100 2312 287 
Q 2550 675 2575 1162 
Q 2600 1650 2575 2025 
Q 2825 1975 3125 1975 
z
M 4000 2025 
Q 3975 1875 3975 1400 
L 3975 300 
Q 3975 -25 4000 -500 
L 3475 -500 
Q 3500 -50 3500 300 
L 3500 1400 
Q 3500 1825 3475 2025 
L 4000 2025 
z
M 1900 1625 
Q 1650 1200 1350 562 
Q 1050 -75 850 -425 
Q 625 -250 325 -125 
Q 575 175 900 750 
Q 1225 1325 1450 1950 
Q 1650 1775 1900 1625 
z
M 625 3450 
Q 1200 3100 1725 2725 
Q 1525 2525 1375 2275 
Q 925 2700 325 3000 
Q 475 3200 625 3450 
z
M 925 4975 
Q 1500 4625 1900 4300 
Q 1725 4075 1550 3875 
Q 1150 4275 625 4575 
Q 800 4800 925 4975 
z
" transform="scale(0.015625)"/>
      </defs>
      <use xlink:href="#SimHei-6ce2"/>
      <use xlink:href="#SimHei-6d6a" x="100"/>
      <use xlink:href="#SimHei-4e0e" x="200"/>
      <use xlink:href="#SimHei-5c3e" x="300"/>
      <use xlink:href="#SimHei-6d41" x="400"/>
     </g>
    </g>
    <g id="patch_13">
     <path d="M 4.8 220.003125 
L 28.8 220.003125 
L 28.8 211.603125 
L 4.8 211.603125 
z
" style="fill: #ff00ff; stroke: #000000; stroke-linejoin: miter"/>
    </g>
    <g id="text_13">
     <!-- 石油平台 -->
     <g transform="translate(38.4 220.003125) scale(0.12 -0.12)">
      <defs>
       <path id="SimHei-77f3" d="M 5100 4825 
Q 5400 4825 5925 4850 
L 5925 4375 
Q 5450 4400 5100 4400 
L 3175 4400 
Q 2975 3600 2550 2850 
L 5525 2850 
Q 5500 1800 5500 925 
Q 5500 50 5525 -500 
L 5000 -500 
L 5000 125 
L 2425 125 
L 2425 -550 
L 1900 -550 
Q 1925 25 1925 1975 
Q 1275 1250 625 800 
Q 425 1050 200 1175 
Q 1275 1825 1900 2800 
Q 2525 3775 2625 4400 
L 2050 4400 
Q 1150 4400 725 4375 
L 725 4850 
Q 1150 4825 2075 4825 
L 5100 4825 
z
M 5000 550 
L 5000 2425 
L 2425 2425 
L 2425 550 
L 5000 550 
z
" transform="scale(0.015625)"/>
       <path id="SimHei-5e73" d="M 4525 4825 
Q 4900 4825 5450 4850 
L 5450 4375 
Q 4925 4400 4525 4400 
L 3475 4400 
L 3475 2025 
L 5000 2025 
Q 5550 2025 6025 2050 
L 6025 1575 
Q 5550 1600 5000 1600 
L 3475 1600 
L 3475 450 
Q 3475 -100 3500 -600 
L 2925 -600 
Q 2950 -100 2950 450 
L 2950 1600 
L 1125 1600 
Q 775 1600 375 1575 
L 375 2050 
Q 775 2025 1175 2025 
L 2950 2025 
L 2950 4400 
L 1775 4400 
Q 1400 4400 875 4375 
L 875 4850 
Q 1400 4825 1750 4825 
L 4525 4825 
z
M 3925 2600 
Q 4500 3300 4900 4125 
Q 5150 3950 5400 3825 
Q 4775 2850 4350 2300 
Q 4150 2475 3925 2600 
z
M 1975 2350 
Q 1600 3100 1050 3725 
Q 1250 3875 1450 4050 
Q 2075 3300 2450 2725 
Q 2150 2500 1975 2350 
z
" transform="scale(0.015625)"/>
       <path id="SimHei-53f0" d="M 5300 2025 
Q 5275 1575 5275 725 
Q 5275 -100 5300 -550 
L 4750 -550 
L 4750 -200 
L 1675 -200 
L 1675 -575 
L 1125 -575 
Q 1150 -200 1150 575 
Q 1150 1375 1125 2025 
L 5300 2025 
z
M 3250 4900 
Q 3050 4750 2675 4300 
Q 2300 3850 1600 3125 
Q 2275 3150 2975 3187 
Q 3675 3225 4700 3300 
Q 4500 3600 3875 4150 
Q 4075 4275 4275 4525 
Q 5225 3550 5950 2725 
Q 5675 2575 5475 2350 
Q 5250 2700 5050 2875 
Q 3800 2800 2587 2712 
Q 1375 2625 900 2450 
Q 800 2925 650 3100 
Q 1000 3200 1587 3800 
Q 2175 4400 2650 5275 
Q 3000 5000 3250 4900 
z
M 4750 275 
L 4750 1550 
L 1675 1550 
L 1675 275 
L 4750 275 
z
" transform="scale(0.015625)"/>
      </defs>
      <use xlink:href="#SimHei-77f3"/>
      <use xlink:href="#SimHei-6cb9" x="100"/>
      <use xlink:href="#SimHei-5e73" x="200"/>
      <use xlink:href="#SimHei-53f0" x="300"/>
     </g>
    </g>
    <g id="patch_14">
     <path d="M 4.8 236.971875 
L 28.8 236.971875 
L 28.8 228.571875 
L 4.8 228.571875 
z
" style="fill: #ffb6c1; stroke: #000000; stroke-linejoin: miter"/>
    </g>
    <g id="text_14">
     <!-- 水母 -->
     <g transform="translate(38.4 236.971875) scale(0.12 -0.12)">
      <defs>
       <path id="SimHei-6bcd" d="M 3475 -75 
Q 4200 -75 4350 25 
Q 4500 125 4525 525 
L 1000 525 
Q 1150 2050 1175 2500 
Q 700 2500 325 2475 
L 325 2925 
Q 750 2900 1225 2900 
Q 1325 4450 1350 4925 
L 5275 4925 
Q 5250 4625 5225 4050 
L 5175 2900 
Q 5525 2900 6100 2925 
L 6100 2475 
Q 5525 2500 5150 2500 
L 5050 900 
Q 5600 900 5875 925 
L 5875 500 
Q 5600 525 5025 525 
Q 4975 125 4887 -112 
Q 4800 -350 4562 -437 
Q 4325 -525 3675 -600 
Q 3675 -350 3475 -75 
z
M 4675 2900 
L 4750 4550 
L 1825 4550 
L 1725 2900 
L 4675 2900 
z
M 4550 900 
L 4650 2500 
L 1675 2500 
L 1550 900 
L 4550 900 
z
M 3775 1375 
Q 3550 1200 3400 1025 
Q 3000 1575 2475 2025 
Q 2650 2150 2825 2350 
Q 3325 1875 3775 1375 
z
M 3350 3050 
Q 3100 3450 2475 4075 
Q 2625 4200 2825 4375 
Q 3400 3800 3750 3350 
Q 3575 3275 3350 3050 
z
" transform="scale(0.015625)"/>
      </defs>
      <use xlink:href="#SimHei-6c34"/>
      <use xlink:href="#SimHei-6bcd" x="100"/>
     </g>
    </g>
    <g id="patch_15">
     <path d="M 4.8 254.221875 
L 28.8 254.221875 
L 28.8 245.821875 
L 4.8 245.821875 
z
" style="fill: #f0e68c; stroke: #000000; stroke-linejoin: miter"/>
    </g>
    <g id="text_15">
     <!-- 海洋黏液 -->
     <g transform="translate(38.4 254.221875) scale(0.12 -0.12)">
      <defs>
       <path id="SimHei-9ecf" d="M 5900 450 
Q 5900 -75 5950 -500 
L 5475 -500 
L 5475 25 
L 4150 25 
L 4150 -600 
L 3675 -600 
Q 3700 -200 3700 450 
L 3700 1600 
Q 3700 2225 3675 2450 
L 4450 2450 
L 4450 4450 
Q 4450 4875 4425 5200 
L 4925 5200 
Q 4875 4875 4875 4500 
L 4875 4025 
L 5450 4025 
Q 5675 4025 6200 4050 
L 6200 3650 
Q 5700 3675 5450 3675 
L 4875 3675 
L 4875 2450 
L 5950 2450 
Q 5900 2125 5900 1600 
L 5900 450 
z
M 2275 4050 
L 3000 4050 
Q 3275 4050 3700 4075 
L 3700 3675 
Q 3400 3700 3025 3700 
L 2275 3700 
L 2275 2925 
Q 2500 2800 2887 2625 
Q 3275 2450 3675 2200 
Q 3525 2000 3400 1825 
Q 3125 2025 2825 2200 
Q 2525 2375 2150 2550 
Q 1875 2275 1500 2000 
Q 1125 1725 600 1450 
Q 425 1650 200 1800 
Q 675 1950 1112 2225 
Q 1550 2500 1850 2825 
L 1850 3475 
Q 1500 3100 1250 2875 
Q 1000 2650 625 2400 
Q 425 2600 250 2750 
Q 675 2950 950 3150 
Q 1225 3350 1475 3700 
L 1125 3700 
Q 825 3700 400 3675 
L 400 4075 
Q 800 4050 1100 4050 
L 1850 4050 
L 1850 4550 
Q 1550 4525 1300 4512 
Q 1050 4500 775 4475 
Q 700 4725 625 4850 
Q 1475 4875 1800 4900 
Q 2125 4925 2462 4987 
Q 2800 5050 3150 5150 
Q 3225 4950 3400 4675 
Q 3125 4675 2837 4637 
Q 2550 4600 2275 4575 
L 2275 4050 
z
M 3500 375 
Q 3300 225 3150 25 
Q 3000 225 2775 425 
Q 2550 625 2275 850 
L 2275 -50 
Q 2275 -375 2125 -437 
Q 1975 -500 1450 -575 
Q 1375 -300 1250 -75 
Q 1800 -125 1825 -62 
Q 1850 0 1850 550 
Q 875 150 625 25 
Q 500 325 375 475 
Q 775 550 1112 662 
Q 1450 775 1850 925 
L 1850 1450 
Q 1850 1750 1825 2100 
L 2300 2100 
Q 2275 1800 2275 1500 
L 2275 1050 
Q 2400 1175 2550 1312 
Q 2700 1450 2875 1675 
Q 3050 1500 3250 1350 
Q 3100 1275 2987 1187 
Q 2875 1100 2725 975 
Q 2875 850 3075 687 
Q 3275 525 3500 375 
z
M 5450 400 
L 5450 2075 
L 4150 2075 
L 4150 400 
L 5450 400 
z
M 3400 2725 
Q 3025 2950 2450 3200 
Q 2550 3350 2625 3550 
Q 3075 3375 3625 3100 
Q 3475 2925 3400 2725 
z
M 1225 1575 
Q 1475 1225 1600 1025 
Q 1425 950 1250 825 
Q 1125 1100 900 1350 
Q 1075 1450 1225 1575 
z
" transform="scale(0.015625)"/>
       <path id="SimHei-6db2" d="M 4800 3775 
Q 4625 3575 4500 3250 
L 5950 3250 
Q 5825 2550 5587 1737 
Q 5350 925 5025 500 
Q 5600 0 6200 -150 
Q 5875 -375 5800 -600 
Q 5175 -275 4700 175 
Q 4300 -200 3675 -600 
Q 3525 -375 3175 -200 
Q 3875 25 4400 525 
Q 4100 875 3725 1725 
Q 3650 1575 3500 1325 
Q 3325 1525 3100 1700 
Q 3375 1975 3725 2700 
Q 4075 3425 4200 3950 
Q 4450 3850 4800 3775 
z
M 3600 3725 
Q 3475 3600 3337 3337 
Q 3200 3075 2975 2675 
L 2975 250 
Q 2975 -100 3000 -625 
L 2475 -625 
Q 2500 -25 2500 325 
L 2500 2100 
Q 2300 1825 2000 1475 
Q 1875 1650 1625 1850 
Q 1925 2100 2200 2450 
Q 2475 2800 2712 3225 
Q 2950 3650 3025 3925 
Q 3350 3775 3600 3725 
z
M 4275 5300 
Q 4400 4975 4500 4550 
L 5275 4550 
Q 5650 4550 6100 4600 
L 6100 4125 
Q 5750 4150 5275 4150 
L 3025 4150 
Q 2625 4150 2175 4100 
L 2175 4600 
Q 2500 4550 2875 4550 
L 3925 4550 
Q 3875 4850 3725 5175 
Q 4025 5225 4275 5300 
z
M 4025 2200 
Q 4300 1400 4700 850 
Q 5125 1375 5375 2825 
L 4300 2825 
Q 4150 2475 4025 2200 
z
M 1550 1600 
Q 1325 875 1175 287 
Q 1025 -300 925 -625 
Q 650 -450 300 -375 
Q 500 -50 687 450 
Q 875 950 1100 1925 
Q 1325 1725 1550 1600 
z
M 550 3500 
Q 1200 3150 1625 2925 
Q 1400 2650 1300 2450 
Q 875 2725 275 3050 
Q 425 3300 550 3500 
z
M 975 5025 
Q 1400 4675 1950 4275 
Q 1775 4100 1600 3850 
Q 1175 4250 675 4625 
Q 850 4825 975 5025 
z
M 4850 2500 
Q 4925 2150 4975 1750 
Q 4700 1725 4525 1675 
Q 4475 2100 4400 2425 
Q 4575 2475 4850 2500 
z
" transform="scale(0.015625)"/>
      </defs>
      <use xlink:href="#SimHei-6d77"/>
      <use xlink:href="#SimHei-6d0b" x="100"/>
      <use xlink:href="#SimHei-9ecf" x="200"/>
      <use xlink:href="#SimHei-6db2" x="300"/>
     </g>
    </g>
   </g>
  </g>
 </g>
</svg>
